<svg height="512pt" viewBox="0 -26 512 512" width="512pt" xmlns="http://www.w3.org/2000/svg"><path d="m455.601562 296.929688c2.628907-22.847657-9.511718-46.699219-18.800781-53.179688-27.480469-19.167969-39.691406-7.539062-48.480469-23.148438-5.324218-9.445312-13.132812-17.304687-22.539062-22.691406-11.109375 1.941406-18.855469 5.597656-28.300781-3.691406-1.492188-1.464844-3.042969-2.832031-4.640625-4.113281-14.804688.96875-23.59375 8.105469-34.769532-2.886719-3.8125-3.75-8.011718-6.875-12.457031-9.402344-11.789062 1.941406-23.113281 7.394532-32.273437 16.402344-11.941406 11.742188-21.199219 2.78125-37.929688 2.78125-46.371094 0-46.710937 38.070312-67.128906 40.410156-39.5 4.53125-56.671875 36.300782-52.300781 67.890625 2.765625 19.988281-21.109375 18.25-34.199219 44.699219h430.808594c-12.238282-34.621094-39.828125-28.359375-36.988282-53.070312zm0 0" fill="#e0f4ff"/><path d="m58 351c0 29.441406 21.199219 53.925781 53.378906 59.019531 43.347656-.007812 134.878906-.054687 330.621094-.019531 26.863281 0 59.316406-26.324219 59.96875-59-122.054688 0-427.265625 0-443.96875 0zm0 0" fill="#ff637b"/><path d="m113.398438 410.015625 14.070312 28.144531c3.390625 6.78125 10.320312 11.058594 17.890625 11.058594h269.808594c5.296875-1.523438 9.824219-5.199219 12.363281-10.277344l14.46875-28.941406c-192.628906-.035156-284.394531.007812-328.601562.015625zm0 0" fill="#766e6e"/><path d="m346 410c0 5.523438-4.476562 10-10 10s-10-4.476562-10-10 4.476562-10 10-10 10 4.476562 10 10zm0 0"/><path d="m396 300c-5.519531 0-10 4.480469-10 10s4.480469 10 10 10 10-4.480469 10-10-4.480469-10-10-10zm0 0"/><path d="m356 240c-5.519531 0-10 4.480469-10 10s4.480469 10 10 10 10-4.480469 10-10-4.480469-10-10-10zm0 0"/><path d="m316 300c-5.519531 0-10 4.480469-10 10s4.480469 10 10 10 10-4.480469 10-10-4.480469-10-10-10zm0 0"/><path d="m256 200c-5.519531 0-10 4.480469-10 10s4.480469 10 10 10 10-4.480469 10-10-4.480469-10-10-10zm0 0"/><path d="m256 260c-5.519531 0-10 4.480469-10 10s4.480469 10 10 10 10-4.480469 10-10-4.480469-10-10-10zm0 0"/><path d="m196 300c-5.519531 0-10 4.480469-10 10s4.480469 10 10 10 10-4.480469 10-10-4.480469-10-10-10zm0 0"/><path d="m156 240c-5.519531 0-10 4.480469-10 10s4.480469 10 10 10 10-4.480469 10-10-4.480469-10-10-10zm0 0"/><path d="m116 300c-5.519531 0-10 4.480469-10 10s4.480469 10 10 10 10-4.480469 10-10-4.480469-10-10-10zm0 0"/><path d="m63.375 419.109375 12.148438 24.304687c5.121093 10.230469 15.402343 16.585938 26.835937 16.585938h307.28125c11.433594 0 21.71875-6.355469 26.835937-16.585938l11.90625-23.816406c31.320313-3.792968 63.617188-33.664062 63.617188-69.597656 0-5.523438-4.476562-10-10-10h-2.695312c-7.136719-15.398438-17.183594-22.683594-24.761719-28.175781-8.066407-5.847657-9.75-7.308594-9.007813-13.75 2.917969-25.351563-9.789062-53.296875-23.015625-62.523438-15.496093-10.8125-27.296875-13.050781-35.109375-14.535156-7.332031-1.390625-8.382812-1.777344-10.378906-5.324219-12.40625-22.015625-35.792969-35.691406-61.03125-35.691406-6.578125 0-12.125 1.15625-16.582031 2.082031-8.386719 1.75-10.300781 1.976563-14.335938-1.992187-13.171875-12.949219-30.59375-20.082032-49.0625-20.089844-.007812 0-.015625 0-.023437 0-18.472656 0-35.902344 7.132812-49.074219 20.089844-4.039063 3.96875-5.957031 3.738281-14.363281 1.988281-4.453125-.925781-9.992188-2.078125-16.558594-2.078125-33.273438 0-47.230469 17.886719-56.464844 29.726562-5.144531 6.589844-8.226562 10.339844-11.804687 10.75-20.140625 2.308594-36.652344 11.097657-47.753907 25.414063-11.355468 14.644531-16.085937 33.746094-13.3125 53.78125.589844 4.261719-.300781 5.449219-8.640624 11.566406-7.792969 5.707031-18.121094 13.28125-25.324219 28.761719h-2.699219c-5.523438 0-10 4.476562-10 10 0 35.667969 26.332031 63.917969 63.375 69.109375zm378.625-19.109375h-66c-5.523438 0-10 4.476562-10 10s4.476562 10 10 10h49.820312l-7.234374 14.46875c-1.707032 3.410156-5.136719 5.53125-8.945313 5.53125h-307.28125c-3.8125 0-7.238281-2.121094-8.945313-5.53125l-7.234374-14.46875h209.820312c5.523438 0 10-4.476562 10-10s-4.476562-10-10-10h-220c-29.730469 0-50.441406-17.34375-55.015625-40.007812h469.761719c-5.625 22.394531-29.089844 40.007812-48.746094 40.007812zm-392.152344-72.632812c8.429688-6.179688 18.921875-13.867188 16.628906-30.4375-2-14.445313 1.394532-28.582032 9.304688-38.785157 7.726562-9.960937 19.5625-16.117187 34.230469-17.800781 12.082031-1.382812 19.101562-10.378906 25.292969-18.316406 8.835937-11.328125 17.183593-22.027344 40.695312-22.027344 4.507812 0 8.5625.84375 12.488281 1.660156 9.203125 1.914063 20.652344 4.292969 32.453125-7.308594 19.328125-19.011718 50.785156-19.011718 70.117188 0 11.804687 11.609376 23.246094 9.226563 32.4375 7.3125 3.925781-.820312 7.984375-1.664062 12.503906-1.664062 18.03125 0 34.742188 9.773438 43.605469 25.507812 6.675781 11.855469 15.917969 13.609376 24.074219 15.15625 7.222656 1.371094 15.410156 2.925782 27.398437 11.289063 6.238281 4.351563 16.777344 24.808594 14.585937 43.835937-2.101562 18.285157 8.566407 26.015626 17.140626 32.226563 4.5625 3.304687 9.210937 6.691406 13.289062 11.984375h-440.171875c4.234375-5.515625 9.128906-9.117188 13.925781-12.632812zm0 0"/><path d="m273.476562 3.359375c-3.667968-4.128906-9.992187-4.503906-14.117187-.835937-4.128906 3.671874-4.503906 9.992187-.832031 14.117187 9.894531 11.136719 9.894531 35.582031 0 46.71875-16.738282 18.832031-16.738282 54.449219 0 73.28125 3.660156 4.125 9.984375 4.507813 14.117187.835937 4.128907-3.671874 4.5-9.992187.832031-14.117187-9.894531-11.136719-9.894531-35.582031 0-46.71875 16.738282-18.832031 16.738282-54.449219 0-73.28125zm0 0"/><path d="m213.476562 3.359375c-3.667968-4.128906-9.992187-4.503906-14.117187-.835937-4.128906 3.671874-4.503906 9.992187-.832031 14.117187 9.894531 11.136719 9.894531 35.582031 0 46.71875-16.738282 18.832031-16.738282 54.449219 0 73.28125 3.660156 4.125 9.984375 4.507813 14.117187.835937 4.128907-3.671874 4.5-9.992187.832031-14.117187-9.894531-11.136719-9.894531-35.582031 0-46.71875 16.738282-18.832031 16.738282-54.449219 0-73.28125zm0 0"/><path d="m333.476562 3.359375c-3.667968-4.128906-9.992187-4.503906-14.117187-.835937-4.128906 3.671874-4.503906 9.992187-.832031 14.117187 9.894531 11.136719 9.894531 35.582031 0 46.71875-16.738282 18.832031-16.738282 54.449219 0 73.28125 3.660156 4.125 9.984375 4.507813 14.117187.835937 4.128907-3.671874 4.5-9.992187.832031-14.117187-9.894531-11.136719-9.894531-35.582031 0-46.71875 16.738282-18.832031 16.738282-54.449219 0-73.28125zm0 0"/></svg>