<?xml version="1.0" encoding="iso-8859-1"?>
<!-- Generator: Adobe Illustrator 19.0.0, SVG Export Plug-In . SVG Version: 6.00 Build 0)  -->
<svg version="1.1" id="Capa_1" xmlns="http://www.w3.org/2000/svg" xmlns:xlink="http://www.w3.org/1999/xlink" x="0px" y="0px"
	 viewBox="0 0 506.148 506.148" style="enable-background:new 0 0 506.148 506.148;" xml:space="preserve">
<path style="fill:#F6C358;" d="M12.488,452.878h481.173c6.897,0,12.488,5.591,12.488,12.488v21.855H0v-21.855
	C0,458.469,5.591,452.878,12.488,452.878z"/>
<path style="fill:#FCD462;" d="M280.262,216.04c7.235-7.068,11.739-16.919,11.739-27.832c0-21.498-17.428-38.927-38.927-38.927
	c-21.498,0-38.927,17.428-38.927,38.927c0,10.914,4.504,20.764,11.739,27.832C107.018,229.541,14.648,330.398,14.648,452.878H491.5
	C491.5,330.398,399.13,229.541,280.262,216.04z M253.075,168.746c10.733,0,19.463,8.731,19.463,19.463s-8.731,19.463-19.463,19.463
	s-19.463-8.731-19.463-19.463S242.342,168.746,253.075,168.746z"/>
<g>
	<path style="fill:#64798A;" d="M252.869,129.626c-1.66,0-3.32-0.596-4.587-1.789c-10.004-9.418-10.004-24.743,0-34.161
		c0.016-0.018,0.447-0.42,0.466-0.438c4.891-4.607,4.888-12.182-0.057-16.837c-6.678-6.287-9.183-14.38-7.337-22.779
		c0.99-4.505,3.606-8.583,7.031-11.864c2.736-2.621,4.022-5.584,4.022-8.736c0-1.913-0.476-3.758-1.373-5.415
		c-1.192-2.2-0.512-4.905,1.262-6.725v0c2.919-2.994,8.237-2.491,10.231,1.113c2.754,4.979,3.532,10.59,2.266,16.342
		c-0.991,4.503-3.605,8.582-7.028,11.862c-2.735,2.621-4.023,5.586-4.023,8.734c0,3.191,1.321,6.188,3.716,8.445
		c10.416,9.799,10.416,25.125,0.412,34.545c-5.357,5.043-5.357,12.62-0.412,17.276c2.534,2.386,2.534,6.251,0,8.636
		C256.189,129.029,254.529,129.626,252.869,129.626z"/>
	<path style="fill:#64798A;" d="M287.336,123.136c-1.66,0-3.32-0.486-4.587-1.457c-10.004-7.666-10.004-20.142,0-27.809
		c0.016-0.015,0.447-0.342,0.466-0.357c4.891-3.751,4.888-9.917-0.057-13.706c-6.678-5.118-9.183-11.706-7.337-18.543
		c0.99-3.667,3.606-6.987,7.031-9.658c2.736-2.134,4.022-4.546,4.022-7.111c0-1.557-0.476-3.059-1.373-4.408
		c-1.192-1.791-0.512-3.993,1.262-5.474l0,0c2.919-2.437,8.237-2.028,10.231,0.906c2.754,4.053,3.532,8.621,2.266,13.303
		c-0.991,3.666-3.605,6.986-7.028,9.657c-2.735,2.133-4.023,4.547-4.023,7.11c0,2.598,1.321,5.037,3.716,6.875
		c10.416,7.977,10.416,20.453,0.412,28.122c-5.357,4.105-5.357,10.274-0.412,14.063c2.534,1.942,2.534,5.088,0,7.03
		C290.656,122.651,288.996,123.136,287.336,123.136z"/>
	<path style="fill:#64798A;" d="M218.403,123.136c-1.66,0-3.32-0.486-4.587-1.457c-10.004-7.666-10.004-20.142,0-27.809
		c0.016-0.015,0.447-0.342,0.466-0.357c4.891-3.751,4.888-9.917-0.057-13.706c-6.678-5.118-9.183-11.706-7.337-18.543
		c0.99-3.667,3.606-6.987,7.031-9.658c2.736-2.134,4.022-4.546,4.022-7.111c0-1.557-0.476-3.059-1.373-4.408
		c-1.192-1.791-0.512-3.993,1.262-5.474v0c2.919-2.437,8.237-2.028,10.231,0.906c2.754,4.053,3.532,8.621,2.266,13.303
		c-0.991,3.666-3.605,6.986-7.028,9.657c-2.735,2.133-4.023,4.547-4.023,7.11c0,2.598,1.321,5.037,3.716,6.875
		c10.416,7.977,10.416,20.453,0.412,28.122c-5.357,4.105-5.357,10.274-0.412,14.063c2.534,1.942,2.534,5.088,0,7.03
		C221.723,122.651,220.063,123.136,218.403,123.136z"/>
</g>
<path style="fill:#F6C358;" d="M84.096,422.245c-0.646,0-1.305-0.07-1.963-0.21c-5.058-1.079-8.284-6.055-7.204-11.113
	c26.091-122.317,124.695-150.869,128.878-152.024c4.991-1.384,10.143,1.546,11.521,6.534c1.375,4.982-1.543,10.137-6.521,11.518
	c-3.854,1.085-91.927,27.098-115.561,137.881C92.31,419.23,88.422,422.245,84.096,422.245z"/>
<g>
</g>
<g>
</g>
<g>
</g>
<g>
</g>
<g>
</g>
<g>
</g>
<g>
</g>
<g>
</g>
<g>
</g>
<g>
</g>
<g>
</g>
<g>
</g>
<g>
</g>
<g>
</g>
<g>
</g>
</svg>
